<?xml version="1.0" standalone="no"?>
<!DOCTYPE svg PUBLIC "-//W3C//DTD SVG 20010904//EN"
 "http://www.w3.org/TR/2001/REC-SVG-20010904/DTD/svg10.dtd">
<svg version="1.0" xmlns="http://www.w3.org/2000/svg"
 width="700.000000pt" height="700.000000pt" viewBox="0 0 700.000000 700.000000"
 preserveAspectRatio="xMidYMid meet">
<metadata>
Created by potrace 1.14, written by Peter Selinger 2001-2017
</metadata>
<g transform="translate(0.000000,700.000000) scale(0.100000,-0.100000)"
fill="#000000" stroke="none">
<path d="M0 3500 l0 -3500 3500 0 3500 0 0 3500 0 3500 -3500 0 -3500 0 0
-3500z m5925 2476 c-581 -804 -604 -832 -733 -899 -113 -59 -159 -67 -569
-101 -311 -26 -387 -35 -400 -48 -9 -9 -246 -302 -528 -650 -351 -434 -507
-634 -496 -636 17 -3 1781 133 1861 144 l45 5 -25 -24 c-14 -14 -956 -798
-2095 -1742 -1139 -945 -2081 -1727 -2094 -1739 -13 -12 -22 -16 -19 -11 3 6
287 524 633 1153 345 629 626 1145 624 1146 -2 2 -362 -25 -799 -59 -437 -35
-796 -62 -798 -60 -1 1 371 521 827 1156 457 634 829 1154 828 1156 -2 1 -342
-24 -757 -57 -415 -32 -755 -58 -756 -57 -4 4 900 1255 956 1323 174 210 445
369 723 424 72 14 684 66 2082 175 1089 85 1991 156 2005 158 14 1 27 2 28 0
2 -1 -242 -342 -543 -757z"/>
</g>
</svg>
